<mxfile host="app.diagrams.net" modified="2023-04-30T12:39:57.914Z" agent="Mozilla/5.0 (Windows NT 10.0; Win64; x64; rv:109.0) Gecko/20100101 Firefox/112.0" etag="1M7-JT4GI0t5hr7l8JEM" version="21.1.8" type="device">
  <diagram name="Page-1" id="0783ab3e-0a74-02c8-0abd-f7b4e66b4bec">
    <mxGraphModel dx="1434" dy="1882" grid="1" gridSize="10" guides="1" tooltips="1" connect="1" arrows="1" fold="1" page="1" pageScale="1" pageWidth="850" pageHeight="1100" background="none" math="0" shadow="0">
      <root>
        <mxCell id="0" />
        <mxCell id="1" parent="0" />
        <mxCell id="QWfJ2k1hHCdb4pd9zscR-31" style="edgeStyle=orthogonalEdgeStyle;rounded=0;orthogonalLoop=1;jettySize=auto;html=1;exitX=0.5;exitY=1;exitDx=0;exitDy=0;entryX=0;entryY=0.5;entryDx=0;entryDy=0;" edge="1" parent="1" source="60571a20871a0731-4" target="QWfJ2k1hHCdb4pd9zscR-30">
          <mxGeometry relative="1" as="geometry" />
        </mxCell>
        <mxCell id="60571a20871a0731-4" value="" style="ellipse;whiteSpace=wrap;html=1;rounded=0;shadow=0;comic=0;labelBackgroundColor=none;strokeWidth=1;fillColor=#000000;fontFamily=Verdana;fontSize=12;align=center;" parent="1" vertex="1">
          <mxGeometry x="190" y="-1040" width="40" height="40" as="geometry" />
        </mxCell>
        <mxCell id="QWfJ2k1hHCdb4pd9zscR-1" value="" style="shape=mxgraph.bpmn.shape;html=1;verticalLabelPosition=bottom;labelBackgroundColor=#ffffff;verticalAlign=top;perimeter=ellipsePerimeter;outline=end;symbol=terminate;rounded=0;shadow=0;comic=0;strokeWidth=1;fontFamily=Verdana;fontSize=12;align=center;" vertex="1" parent="1">
          <mxGeometry x="540" y="-1040" width="40" height="40" as="geometry" />
        </mxCell>
        <mxCell id="QWfJ2k1hHCdb4pd9zscR-37" style="edgeStyle=orthogonalEdgeStyle;rounded=0;orthogonalLoop=1;jettySize=auto;html=1;" edge="1" parent="1" source="QWfJ2k1hHCdb4pd9zscR-30" target="QWfJ2k1hHCdb4pd9zscR-36">
          <mxGeometry relative="1" as="geometry" />
        </mxCell>
        <mxCell id="QWfJ2k1hHCdb4pd9zscR-39" value="git push" style="edgeLabel;html=1;align=center;verticalAlign=middle;resizable=0;points=[];" vertex="1" connectable="0" parent="QWfJ2k1hHCdb4pd9zscR-37">
          <mxGeometry x="0.3143" y="1" relative="1" as="geometry">
            <mxPoint as="offset" />
          </mxGeometry>
        </mxCell>
        <mxCell id="QWfJ2k1hHCdb4pd9zscR-42" style="edgeStyle=orthogonalEdgeStyle;rounded=0;orthogonalLoop=1;jettySize=auto;html=1;entryX=0.5;entryY=0;entryDx=0;entryDy=0;" edge="1" parent="1" source="QWfJ2k1hHCdb4pd9zscR-30" target="QWfJ2k1hHCdb4pd9zscR-41">
          <mxGeometry relative="1" as="geometry" />
        </mxCell>
        <mxCell id="QWfJ2k1hHCdb4pd9zscR-43" value="git pull" style="edgeLabel;html=1;align=center;verticalAlign=middle;resizable=0;points=[];" vertex="1" connectable="0" parent="QWfJ2k1hHCdb4pd9zscR-42">
          <mxGeometry x="-0.1667" y="-2" relative="1" as="geometry">
            <mxPoint as="offset" />
          </mxGeometry>
        </mxCell>
        <mxCell id="QWfJ2k1hHCdb4pd9zscR-30" value="Бездействие в IDE" style="rounded=1;whiteSpace=wrap;html=1;" vertex="1" parent="1">
          <mxGeometry x="270" y="-930" width="120" height="60" as="geometry" />
        </mxCell>
        <mxCell id="QWfJ2k1hHCdb4pd9zscR-40" style="edgeStyle=orthogonalEdgeStyle;rounded=0;orthogonalLoop=1;jettySize=auto;html=1;entryX=0.5;entryY=1;entryDx=0;entryDy=0;" edge="1" parent="1" source="QWfJ2k1hHCdb4pd9zscR-36" target="QWfJ2k1hHCdb4pd9zscR-1">
          <mxGeometry relative="1" as="geometry" />
        </mxCell>
        <mxCell id="QWfJ2k1hHCdb4pd9zscR-36" value="Сохранение изменений в репозитории" style="rounded=1;whiteSpace=wrap;html=1;" vertex="1" parent="1">
          <mxGeometry x="500" y="-930" width="120" height="60" as="geometry" />
        </mxCell>
        <mxCell id="QWfJ2k1hHCdb4pd9zscR-38" value="[проект отлажен]" style="text;html=1;align=center;verticalAlign=middle;resizable=0;points=[];autosize=1;strokeColor=none;fillColor=none;" vertex="1" parent="1">
          <mxGeometry x="390" y="-890" width="120" height="30" as="geometry" />
        </mxCell>
        <mxCell id="QWfJ2k1hHCdb4pd9zscR-45" style="edgeStyle=orthogonalEdgeStyle;rounded=0;orthogonalLoop=1;jettySize=auto;html=1;" edge="1" parent="1" source="QWfJ2k1hHCdb4pd9zscR-41" target="QWfJ2k1hHCdb4pd9zscR-44">
          <mxGeometry relative="1" as="geometry" />
        </mxCell>
        <mxCell id="QWfJ2k1hHCdb4pd9zscR-46" value="запуск отладчика" style="edgeLabel;html=1;align=center;verticalAlign=middle;resizable=0;points=[];" vertex="1" connectable="0" parent="QWfJ2k1hHCdb4pd9zscR-45">
          <mxGeometry x="-0.2667" relative="1" as="geometry">
            <mxPoint as="offset" />
          </mxGeometry>
        </mxCell>
        <mxCell id="QWfJ2k1hHCdb4pd9zscR-41" value="Внесение изменений в код" style="rounded=1;whiteSpace=wrap;html=1;" vertex="1" parent="1">
          <mxGeometry x="270" y="-790" width="120" height="60" as="geometry" />
        </mxCell>
        <mxCell id="QWfJ2k1hHCdb4pd9zscR-48" style="edgeStyle=orthogonalEdgeStyle;rounded=0;orthogonalLoop=1;jettySize=auto;html=1;entryX=0.75;entryY=1;entryDx=0;entryDy=0;" edge="1" parent="1" source="QWfJ2k1hHCdb4pd9zscR-44" target="QWfJ2k1hHCdb4pd9zscR-30">
          <mxGeometry relative="1" as="geometry">
            <mxPoint x="330" y="-490" as="targetPoint" />
            <Array as="points">
              <mxPoint x="500" y="-630" />
              <mxPoint x="500" y="-820" />
              <mxPoint x="360" y="-820" />
            </Array>
          </mxGeometry>
        </mxCell>
        <mxCell id="QWfJ2k1hHCdb4pd9zscR-49" value="&lt;div&gt;сохранение&lt;/div&gt;&lt;div&gt;изменений&lt;br&gt;&lt;/div&gt;" style="edgeLabel;html=1;align=center;verticalAlign=middle;resizable=0;points=[];" vertex="1" connectable="0" parent="QWfJ2k1hHCdb4pd9zscR-48">
          <mxGeometry x="-0.2909" y="1" relative="1" as="geometry">
            <mxPoint as="offset" />
          </mxGeometry>
        </mxCell>
        <mxCell id="QWfJ2k1hHCdb4pd9zscR-50" style="edgeStyle=orthogonalEdgeStyle;rounded=0;orthogonalLoop=1;jettySize=auto;html=1;entryX=0;entryY=0.5;entryDx=0;entryDy=0;" edge="1" parent="1" source="QWfJ2k1hHCdb4pd9zscR-44" target="QWfJ2k1hHCdb4pd9zscR-41">
          <mxGeometry relative="1" as="geometry">
            <Array as="points">
              <mxPoint x="230" y="-630" />
              <mxPoint x="230" y="-760" />
            </Array>
          </mxGeometry>
        </mxCell>
        <mxCell id="QWfJ2k1hHCdb4pd9zscR-51" value="&lt;div&gt;найти другой&lt;/div&gt;&lt;div&gt;баг&lt;br&gt;&lt;/div&gt;" style="edgeLabel;html=1;align=center;verticalAlign=middle;resizable=0;points=[];" vertex="1" connectable="0" parent="QWfJ2k1hHCdb4pd9zscR-50">
          <mxGeometry x="0.2" y="2" relative="1" as="geometry">
            <mxPoint as="offset" />
          </mxGeometry>
        </mxCell>
        <mxCell id="QWfJ2k1hHCdb4pd9zscR-44" value="Проход дебаггером по коду" style="rounded=1;whiteSpace=wrap;html=1;" vertex="1" parent="1">
          <mxGeometry x="270" y="-660" width="120" height="60" as="geometry" />
        </mxCell>
        <mxCell id="QWfJ2k1hHCdb4pd9zscR-47" value="[изменения правилные]" style="text;html=1;align=center;verticalAlign=middle;resizable=0;points=[];autosize=1;strokeColor=none;fillColor=none;" vertex="1" parent="1">
          <mxGeometry x="410" y="-620" width="160" height="30" as="geometry" />
        </mxCell>
      </root>
    </mxGraphModel>
  </diagram>
</mxfile>
